<?xml version="1.0" encoding="UTF-8" standalone="no"?>
<svg width="75px" height="74px" viewBox="0 0 75 74" version="1.1" xmlns="http://www.w3.org/2000/svg" xmlns:xlink="http://www.w3.org/1999/xlink">
    <!-- Generator: sketchtool 46.2 (44496) - http://www.bohemiancoding.com/sketch -->
    <title>77FFCAE2-B51C-4B16-9A06-4BD7110284D4</title>
    <desc>Created with sketchtool.</desc>
    <defs>
        <rect id="path-1" x="0" y="0" width="60" height="74" rx="6"></rect>
        <circle id="path-2" cx="13.5" cy="13.5" r="13.5"></circle>
    </defs>
    <g id="02-FileExplorer" stroke="none" stroke-width="1" fill="none" fill-rule="evenodd">
        <g id="FileExplorer-Basic-01" transform="translate(-931.000000, -324.000000)">
            <g id="Group-7" transform="translate(241.000000, 0.000000)">
                <g id="Group-5">
                    <g id="Group-4" transform="translate(329.000000, 59.000000)">
                        <g id="NoFileSelected" transform="translate(361.000000, 265.000000)">
                            <g id="Group-8">
                                <g id="Rectangle">
                                    <use fill="#FFFFFF" fill-rule="evenodd" xlink:href="#path-1"></use>
                                    <rect stroke="#CACFDE" stroke-width="2" x="1" y="1" width="58" height="72" rx="6"></rect>
                                </g>
                                <rect id="Rectangle-2" fill="#CACFDE" x="12" y="16" width="36" height="4" rx="2"></rect>
                                <rect id="Rectangle-2-Copy-4" fill="#CACFDE" x="12" y="28" width="26" height="4" rx="2"></rect>
                                <rect id="Rectangle-2-Copy-5" fill="#CACFDE" x="12" y="40" width="26" height="4" rx="2"></rect>
                                <rect id="Rectangle-2-Copy-6" fill="#CACFDE" x="12" y="52" width="32" height="4" rx="2"></rect>
                            </g>
                            <g id="Group" transform="translate(40.000000, 22.000000)">
                                <path d="M23.5,21.5 L33.5,30.5" id="Line-2" stroke="#CACFDE" stroke-width="2" stroke-linecap="square"></path>
                                <g id="Oval">
                                    <use fill="#FFFFFF" fill-rule="evenodd" xlink:href="#path-2"></use>
                                    <circle stroke="#CACFDE" stroke-width="2" cx="13.5" cy="13.5" r="12.5"></circle>
                                </g>
                                <path d="M13.7577164,8.65771645 C14.8243831,7.45771645 16.1577164,6.85771645 17.7577164,6.85771645 C18.7339788,6.85771645 19.6109612,7.0810965 20.3886635,7.52785661 C20.7199148,7.71814772 21.1762657,8.09476767 21.7577164,8.65771645" id="Path-2" stroke="#CACFDE" stroke-width="2" stroke-linecap="round" stroke-linejoin="round" transform="translate(17.757716, 7.757716) rotate(45.000000) translate(-17.757716, -7.757716) "></path>
                            </g>
                        </g>
                    </g>
                </g>
            </g>
        </g>
    </g>
</svg>