<svg version="1" id="Layer_1" xmlns="http://www.w3.org/2000/svg" viewBox="150 50 175 140"><style>.st0{fill:#00807B;} .st1{opacity:0.47;fill:#00605C;} .st2{fill:#00AAA4;} .st3{opacity:0.47;fill:#00807B;} .st4{fill:#66CCC8;} .st5{fill:#FFFFFF;}</style><path class="st0" d="M251.79 62.51c3.83 10.49 7.62 23.15 10.37 37.72 2.78 14.71 3.88 28 4.13 39.25 13.66-15.1 27.32-30.19 40.98-45.29l-55.48-31.68z"/><path class="st1" d="M260.64 94.76l22.11 12.84-16.89 20.24s-2.91-23.6-5.22-33.08z"/><path class="st2" d="M193.27 47.97c5.73 18.93 11.14 40.27 15.45 63.81 3.9 21.28 6.32 41.17 7.76 59.31 21.85-24.15 43.7-48.29 65.54-72.44l-88.75-50.68z"/><path class="st3" d="M206.98 98.2l31.48 18.28-24.05 28.82s-4.14-33.6-7.43-47.1z"/><path class="st4" d="M167.57 69.76c4.02 13.28 7.83 28.07 10.97 44.25 3.53 18.17 5.65 35.06 6.85 50.3 16.77-18.58 33.54-37.16 50.32-55.74l-68.14-38.81z"/><path id="Skylink_6_" class="st5" d="M196.24 257.09c-.32.96-1.65.96-2.03.05l-18.12-45.46c-.48-1.23-1.71-.8-3.09-.8h-20.57c-1.01 0-1.97.16-2.56.91l-22.75 25.9c-.21.27-2.18 2.72-2.18 1.44-.16-1.23-.32-3.84-.32-4.32v-21.16c0-1.71-3.52-2.77-5.33-2.77h-10.23c-1.81 0-2.03 1.12-2.03 2.77v61.98c0 1.71-.32 4 1.49 4h12.58c3.09-.11 3.52-2.29 3.52-4v-5.54c.11-3.09-.75-9.38-.21-9.97l7.46-8.42c1.49-1.55 3.94-1.33 5.06.48l15.88 25.42c.59.91 1.55 1.97 2.72 1.97h11.24c2.61 0 4.21-3.14 2.77-5.17l-23.77-34.8c-.8-1.12-1.12-2.72-.16-3.73l10.44-11.99 1.12-1.39c1.33-1.33 4.69-3.09 6.5.11l22.86 53.66c.27.64.32 1.65.11 2.29l-1.07 3.52c-2.45 6.93-7.03 11.94-14.97 11.94-.75 0-1.49-.05-2.29-.21-1.76-.32-3.41.69-3.84 2.29l-1.71 6.87c-.43 1.65.69 3.3 2.5 3.68 1.87.37 4 .59 6.55.59 16.36 0 24.19-9.75 30.43-25.42L228 214.14c.75-1.97-.85-3.25-3.14-3.25h-9.91c-1.44 0-2.72.11-3.14 1.39l-1.33 3.78-14.24 41.03zm80.25 12.95c-.05-2.61-1.6-3.2-4.16-3.2-24.73.11-25.63.27-25.63-5.97l-.05-47.27c0-1.71.21-2.72-1.6-2.72h-10.98c-1.81 0-2.88 1.01-2.88 2.72v55.05c-.16 13.7-1.17 11.78 16.95 11.78 2.5 0 23.77.16 25.53-.21 1.71-.32 2.88-1.71 2.88-3.3v-6.87h-.06zM80.81 227.99l-13.48-5.22c-8.26-3.14-15.88-5.81-15.88-13.06 0-6.77 6.13-10.87 15.61-10.87 7.46 0 13.64 2.24 19.24 6.08 1.44.96 3.41.75 4.53-.53l5.17-5.86c1.12-1.28.96-3.14-.43-4.21-7.62-6.02-17.91-9.75-28.56-9.75-19.45 0-34.59 11.3-34.59 26.01 0 13.59 11.3 20.78 21.26 24.57l13.64 5.49c9.17 3.52 15.08 5.92 15.08 13.59 0 7.19-5.76 11.88-16.89 11.88-8.31 0-16.89-3.36-23.71-8.47-1.39-1.07-3.46-.91-4.58.37l-6.02 6.55c-1.17 1.28-1.01 3.2.37 4.32 9.17 7.35 21.1 11.56 33.47 11.56 22.49 0 35.97-12.42 35.97-27.44 0-13.44-8.26-20.37-20.2-25.01zm356.83 46.47l-23.77-34.8c-.8-1.12-.69-2.66.27-3.68l19.61-20.78c1.81-1.97.27-4.26-2.5-4.26h-10.6c-1.01 0-1.97.16-2.56.91l-26.86 30.54h-.16v-31.65c0-1.71-.59-3.52-3.68-3.57h-14.28c-4.64.21-4.16.21-2.56 2.93 2.56 4.32 2.45 11.4 2.4 14.92v52.6c0 2.03 2.08 1.92 2.08 1.92l12.36.11c3.46-.21 3.46-.21 3.68-4v-13.48c0-.75.11-1.44.64-2.03l7.89-8.42c1.49-1.55 4.16-1.33 5.28.48l15.99 25.42c.59.91 1.65 1.97 2.82 1.97h11.24c2.55.04 4.1-3.1 2.71-5.13zm-140.9-61.12c0-1.71-2.34-2.45-4.16-2.45h-10.34c-1.81 0-1.49.75-1.49 2.45v64.43c0 1.71-.32 1.87 1.49 1.87h10.34c3.04 0 4.16-1.12 4.16-2.77v-63.53zm23.29 2.24l-.59-3.73c-.21-1.55-1.6-.96-3.3-.96h-9.06c-1.81 0-3.41-.21-3.41 1.49v64.27c-.05 3.46-.48 2.88 3.04 3.04h12.15c1.81 0 2.93-2.29 2.93-4v-44.12c0-.85.53-1.65 1.23-2.24 5.76-5.06 9.22-7.73 15.4-7.73 8.26 0 11.08 4.26 11.08 15.67v38.37c0 1.71.85 3.84 4.85 4h10.98c1.81 0 .69-2.29.69-4v-40.5c0-17.53-5.7-28.51-21.8-28.51-9.97 0-16.36 6.23-22.75 9.81-1.07.63-1.44-.86-1.44-.86z"/></svg>